<svg width="35" height="35" viewBox="0 0 35 35" fill="none" xmlns="http://www.w3.org/2000/svg">
<path d="M33.0556 35H1.94444C0.870557 35 0 34.1294 0 33.0556V18.8611C0 18.3009 0.241734 17.768 0.663056 17.3989L3.88889 14.5833V1.94444C3.88889 0.870557 4.75945 0 5.83333 0H33.0556C34.1294 0 35 0.870557 35 1.94444V33.0556C35 34.1294 34.1294 35 33.0556 35ZM11.6667 8.4175C12.1375 8.41805 12.5921 8.58939 12.9461 8.89972L22.6683 17.4067C23.0883 17.7737 23.3305 18.3034 23.3333 18.8611V31.1111H31.1111V3.88889H7.77778V11.1806L10.3853 8.89778C10.7401 8.58771 11.1955 8.41704 11.6667 8.4175ZM9.72222 25.2778H13.6111V31.1111H19.4444V19.7497L11.6667 12.9442L3.88889 19.7497V31.1111H9.72222V25.2778Z" fill="black"/>
</svg>
