<svg width="20" height="34" viewBox="0 0 20 34" fill="none" xmlns="http://www.w3.org/2000/svg">
<path d="M11.7312 33.5177H6.70352V28.4901H11.7312V33.5177ZM11.7312 25.1383H6.70352V25.1266C6.70352 22.3614 6.70352 19.9732 7.82972 18.3007C8.70588 17.1903 9.79608 16.2671 11.0357 15.5858C11.5954 15.2271 12.1233 14.8869 12.5674 14.5333C14.5138 13.0268 15.3889 10.5145 14.7997 8.12476C13.8674 5.8961 11.4953 4.63152 9.12533 5.09975C6.75534 5.56797 5.04234 7.63963 5.02764 10.0554H0C0 4.502 4.5019 4.5581e-05 10.0553 4.5581e-05C13.9186 -0.0115155 17.4517 2.17697 19.162 5.64111C20.6983 9.17073 20.091 13.2671 17.5967 16.1992C16.8384 17.0396 15.9872 17.7912 15.0595 18.4398C14.2476 18.9998 13.507 19.6565 12.854 20.3956C11.9311 21.7941 11.5333 23.4744 11.7312 25.1383Z" fill="black"/>
</svg>
