<svg width="35" height="37" viewBox="0 0 35 37" fill="none" xmlns="http://www.w3.org/2000/svg">
<path d="M28.4586 36.8401C26.4716 36.863 24.5883 35.9551 23.3687 34.3862C22.1491 32.8173 21.7338 30.7682 22.2462 28.8483L10.7507 22.2778C8.76431 24.0977 5.8526 24.4829 3.46132 23.2421C1.07003 22.0013 -0.291465 19.3989 0.0528377 16.7269C0.39714 14.055 2.37391 11.8827 5.00162 11.2887C7.62934 10.6946 10.3483 11.8054 11.8085 14.0694L22.2444 8.10307C22.1094 7.59291 22.0378 7.06803 22.0314 6.54034C22.0051 3.46761 24.1392 0.798347 27.1423 0.147692C30.1455 -0.502962 33.193 1.04368 34.4408 3.85177C35.6886 6.65987 34.794 9.9582 32.2983 11.751C29.8027 13.5438 26.3914 13.3387 24.1285 11.2598L12.8331 17.7145C12.8219 18.1907 12.7554 18.664 12.6348 19.1248L24.1285 25.6934C26.2445 23.7516 29.3929 23.4518 31.8373 24.9595C34.2816 26.4672 35.4269 29.4152 34.6413 32.1776C33.8557 34.94 31.3305 36.8443 28.4586 36.8401ZM28.4586 27.6583C26.9373 27.6583 25.7041 28.8916 25.7041 30.4128C25.7041 31.9341 26.9373 33.1674 28.4586 33.1674C29.9799 33.1674 31.2131 31.9341 31.2131 30.4128C31.2131 28.8916 29.9799 27.6583 28.4586 27.6583ZM6.42245 14.8039C4.90117 14.8039 3.66793 16.0371 3.66793 17.5584C3.66793 19.0797 4.90117 20.3129 6.42245 20.3129C7.94373 20.3129 9.17697 19.0797 9.17697 17.5584C9.17697 16.0371 7.94373 14.8039 6.42245 14.8039ZM28.4586 3.78582C26.9373 3.78582 25.7041 5.01906 25.7041 6.54034C25.7041 8.06162 26.9373 9.29486 28.4586 9.29486C29.9799 9.29486 31.2131 8.06162 31.2131 6.54034C31.2131 5.01906 29.9799 3.78582 28.4586 3.78582Z" fill="black"/>
</svg>
