<svg width="40" height="46" viewBox="0 0 40 46" fill="none" xmlns="http://www.w3.org/2000/svg">
<path d="M40 45.7142L35.0869 41.3834L32.3176 38.809L29.3895 36.0902L30.5925 40.3224H4.68454C2.08993 40.3131 -0.00662434 38.2036 1.5729e-05 35.609V4.70857C-0.00396576 2.11583 2.09182 0.00928514 4.68454 0H35.3155C37.9082 0.00928514 40.004 2.11583 40 4.70857V45.7142ZM29.1128 25.2824C28.0983 26.643 26.6377 27.6037 24.9865 27.9964C25.665 28.8625 26.483 29.8418 26.4902 29.8514C29.2502 29.9097 31.8635 28.6116 33.4845 26.3771C33.4015 21.7449 32.2765 17.1907 30.1931 13.0526C28.3588 11.6133 26.126 10.7732 23.7979 10.6466H23.7714L23.4514 11.0123C25.531 11.5709 27.4703 12.5594 29.1441 13.914C27.0143 12.7432 24.6772 11.998 22.2629 11.7197C20.7284 11.5493 19.1789 11.5646 17.6481 11.7654C17.5399 11.7675 17.4321 11.7788 17.3257 11.7991H17.2584C15.4643 12.0057 13.7138 12.4928 12.071 13.2427C11.2481 13.6204 10.7429 13.8947 10.7212 13.9043C10.6996 13.914 10.7212 13.9043 10.7212 13.8875C12.4966 12.4912 14.5448 11.4822 16.7338 10.9257L16.4932 10.6514H16.4788C14.1507 10.7784 11.9181 11.6183 10.0836 13.0574C7.99258 17.1927 6.86718 21.7486 6.7922 26.3819C8.39301 28.6313 11.0099 29.9343 13.7696 29.8562C13.7696 29.8562 14.631 28.8072 15.3023 27.9579C13.6926 27.5533 12.2744 26.6004 11.2914 25.2631C11.3083 25.2752 11.5465 25.4364 11.9314 25.6481C11.9573 25.6785 11.9893 25.7031 12.0253 25.7203C12.0558 25.7414 12.088 25.7599 12.1215 25.7756C12.1596 25.7929 12.1958 25.8138 12.2298 25.8382C12.7666 26.1341 13.3238 26.3914 13.8972 26.6081C14.9873 27.0397 16.1148 27.37 17.2656 27.5946C18.2731 27.7845 19.296 27.8812 20.3212 27.8833C21.2825 27.8832 22.2417 27.7946 23.1868 27.6186C24.3249 27.4188 25.4365 27.0894 26.4999 26.637C27.4184 26.2837 28.2947 25.8294 29.1128 25.2824ZM24.2093 24.255C23.1625 24.3463 22.1671 23.7856 21.7025 22.8431C21.238 21.9006 21.3997 20.7696 22.1097 19.995C22.8196 19.2204 23.9323 18.9611 24.9116 19.342C25.8909 19.7229 26.5359 20.6659 26.5359 21.7167C26.589 23.059 25.5489 24.1926 24.2069 24.255H24.2093ZM15.8653 24.255C14.5488 24.1403 13.5386 23.0381 13.5386 21.7167C13.5386 20.3952 14.5488 19.2931 15.8653 19.1783C16.4717 19.1802 17.0515 19.4275 17.4725 19.864C17.9502 20.3599 18.21 21.0259 18.1943 21.7143C18.25 23.0589 17.2073 24.1952 15.8629 24.255H15.8653Z" fill="white"/>
</svg>
