<svg width="36" height="36" viewBox="0 0 36 36" fill="none" xmlns="http://www.w3.org/2000/svg">
<path d="M20 36H12V12H20V16C21.7052 13.8305 24.2912 12.5371 27.0499 12.474C32.0111 12.5015 36.0143 16.5388 36 21.5V36H27.9999V22.5C27.68 20.2653 25.7635 18.6072 23.506 18.612C22.5185 18.6432 21.5864 19.0756 20.9248 19.8092C20.2632 20.5429 19.9292 21.5146 20 22.5V36ZM7.99998 36H0V12H7.99998V36ZM3.99999 8C1.79086 8 0 6.20914 0 4C0 1.79086 1.79086 0 3.99999 0C6.20913 0 7.99998 1.79086 7.99998 4C7.99998 5.06087 7.57856 6.07828 6.82841 6.82843C6.07827 7.57857 5.06085 8 3.99999 8Z" fill="white"/>
</svg>
