<svg width="25" height="25" viewBox="0 0 25 25" fill="none" xmlns="http://www.w3.org/2000/svg">
<path d="M0 24.9999V14.0625H10.9375L5.91094 19.0937C7.64525 20.8672 10.0195 21.8693 12.5 21.8749C16.4679 21.8691 20.0024 19.3659 21.325 15.625H21.3531C21.5321 15.1166 21.6675 14.5939 21.7578 14.0625H24.9016C24.1142 20.3123 18.7993 24.9997 12.5 24.9999H12.4844C9.16994 25.0098 5.98932 23.6932 3.65156 21.3437L0 24.9999ZM3.24063 10.9375H0.096875C0.883984 4.69009 6.19531 0.00347635 12.4922 6.3593e-05H12.5C15.815 -0.0105433 18.9964 1.30612 21.3344 3.65634L25 6.3593e-05V10.9375H14.0625L19.0969 5.90632C17.3608 4.13079 14.9833 3.12844 12.5 3.1251C8.53211 3.13095 4.99763 5.63411 3.675 9.37504H3.64688C3.46649 9.88301 3.33108 10.4059 3.24219 10.9375H3.24063Z" fill="black"/>
</svg>
